<svg width="24" height="24" viewBox="0 0 24 24" fill="none" xmlns="http://www.w3.org/2000/svg">
<g clip-path="url(#clip0)">
<path d="M20.0937 20.7637H3.9063C2.5789 20.7637 1.5 19.6848 1.5 18.3574V7.41982C1.5 6.09241 2.5789 5.01367 3.9063 5.01367H9.1563C9.51855 5.01367 9.81255 5.30767 9.81255 5.66992C9.81255 6.03217 9.51855 6.32617 9.1563 6.32617H3.9063C3.30341 6.32617 2.8125 6.81692 2.8125 7.41982V18.3574C2.8125 18.9603 3.30341 19.4512 3.9063 19.4512H20.0937C20.6966 19.4512 21.1875 18.9603 21.1875 18.3574V7.41982C21.1875 6.81692 20.6966 6.32617 20.0937 6.32617H14.8437C14.4814 6.32617 14.1874 6.03217 14.1874 5.66992C14.1874 5.30767 14.4814 5.01367 14.8437 5.01367H20.0937C21.4211 5.01367 22.5 6.09241 22.5 7.41982V18.3574C22.5 19.6848 21.4211 20.7637 20.0937 20.7637Z" fill="#095d59"/>
<path d="M13.9687 8.07612H10.0312C9.18685 8.07612 8.5 7.38927 8.5 6.54492V4.79487C8.5 3.95052 9.18685 3.26367 10.0312 3.26367H13.9687C14.813 3.26367 15.4999 3.95052 15.4999 4.79487V6.54492C15.4999 7.38927 14.813 8.07612 13.9687 8.07612ZM10.0312 4.57617C9.91039 4.57617 9.8125 4.67422 9.8125 4.79487V6.54492C9.8125 6.66573 9.91039 6.76362 10.0312 6.76362H13.9687C14.0895 6.76362 14.1874 6.66573 14.1874 6.54492V4.79487C14.1874 4.67422 14.0895 4.57617 13.9687 4.57617H10.0312Z" fill="#095d59"/>
<path d="M8.06245 13.7637C6.85665 13.7637 5.875 12.7819 5.875 11.5763C5.875 10.3705 6.85665 9.38867 8.06245 9.38867C9.26824 9.38867 10.2499 10.3705 10.2499 11.5763C10.2499 12.7819 9.26824 13.7637 8.06245 13.7637ZM8.06245 10.7012C7.58035 10.7012 7.1875 11.094 7.1875 11.5763C7.1875 12.0584 7.58035 12.4512 8.06245 12.4512C8.54454 12.4512 8.93739 12.0584 8.93739 11.5763C8.93739 11.094 8.54454 10.7012 8.06245 10.7012Z" fill="#095d59"/>
<path d="M11.3438 18.1388C10.9815 18.1388 10.6875 17.8448 10.6875 17.4825V17.045C10.6875 16.4421 10.1966 15.9512 9.5937 15.9512H6.5313C5.92841 15.9512 5.4375 16.4421 5.4375 17.045V17.4825C5.4375 17.8448 5.1435 18.1388 4.78125 18.1388C4.419 18.1388 4.125 17.8448 4.125 17.4825V17.045C4.125 15.7176 5.2039 14.6387 6.5313 14.6387H9.5937C10.9211 14.6387 12 15.7176 12 17.045V17.4825C12 17.8448 11.706 18.1388 11.3438 18.1388Z" fill="#095d59"/>
<path d="M19.2187 11.1387H14.4062C14.044 11.1387 13.75 10.8447 13.75 10.4824C13.75 10.1202 14.044 9.82617 14.4062 9.82617H19.2187C19.5809 9.82617 19.8749 10.1202 19.8749 10.4824C19.8749 10.8447 19.5809 11.1387 19.2187 11.1387Z" fill="#095d59"/>
<path d="M19.2187 14.6387H14.4062C14.044 14.6387 13.75 14.3447 13.75 13.9824C13.75 13.6202 14.044 13.3262 14.4062 13.3262H19.2187C19.5809 13.3262 19.8749 13.6202 19.8749 13.9824C19.8749 14.3447 19.5809 14.6387 19.2187 14.6387Z" fill="#095d59"/>
<path d="M19.2187 18.1387H14.4062C14.044 18.1387 13.75 17.8447 13.75 17.4824C13.75 17.1202 14.044 16.8262 14.4062 16.8262H19.2187C19.5809 16.8262 19.8749 17.1202 19.8749 17.4824C19.8749 17.8447 19.5809 18.1387 19.2187 18.1387Z" fill="#095d59"/>
</g>
<defs>
<clipPath id="clip0">
<rect width="21" height="21" fill="white" transform="translate(1.5 1.5)"/>
</clipPath>
</defs>
</svg>
